<svg width="81" height="81" viewBox="0 0 81 81" fill="none" xmlns="http://www.w3.org/2000/svg">
<path d="M20.6024 0.928921C19.9132 0.94371 19.2399 1.13948 18.6493 1.49643C18.0588 1.85337 17.5716 2.35931 17.2362 2.96382L12.2094 12.1946L2.97874 17.2213C2.35687 17.5627 1.83798 18.0658 1.47651 18.6778C1.11503 19.2898 0.924293 19.988 0.924293 20.6994C0.924293 21.4109 1.11503 22.1095 1.47651 22.7215C1.83798 23.3336 2.35687 23.8366 2.97874 24.178L12.2094 29.2047L17.2362 38.4355C17.5742 39.0662 18.0761 39.593 18.6885 39.9604C19.3009 40.3278 20.0011 40.522 20.7146 40.522C21.428 40.522 22.1282 40.3278 22.7406 39.9604C23.3531 39.593 23.8549 39.0662 24.1929 38.4355L29.2496 29.2047L38.4354 24.178C39.0573 23.8366 39.5762 23.3336 39.9377 22.7215C40.2991 22.1095 40.4899 21.4109 40.4899 20.6994C40.4899 19.988 40.2991 19.2898 39.9377 18.6778C39.5762 18.0658 39.0573 17.5627 38.4354 17.2213L29.2496 12.1946L24.1929 2.96382C23.8412 2.32283 23.3196 1.79198 22.6858 1.43023C22.0521 1.06847 21.331 0.889576 20.6024 0.913855V0.928921ZM20.7071 13.1068L22.8465 16.9967C23.2099 17.6602 23.755 18.2054 24.4173 18.5677L28.3071 20.6921L24.4173 22.8316C23.755 23.1939 23.2099 23.7387 22.8465 24.4022L20.7071 28.2921L18.6126 24.4022C18.2492 23.7387 17.704 23.1939 17.0417 22.8316L13.152 20.6921L17.0417 18.5677C17.7061 18.2014 18.2514 17.6506 18.6126 16.9816L20.7071 13.1068ZM60.2929 16.7424C59.7742 16.7404 59.2603 16.8408 58.7803 17.0383C58.3004 17.2357 57.8639 17.5262 57.4957 17.8929C57.1276 18.2597 56.835 18.6956 56.6347 19.1759C56.4344 19.6561 56.3303 20.1715 56.3283 20.6921C56.3283 21.214 56.431 21.7305 56.6304 22.2125C56.8298 22.6945 57.1221 23.1326 57.4904 23.5009C57.8588 23.8692 58.296 24.1609 58.7769 24.3592C59.2578 24.5576 59.773 24.6584 60.2929 24.6565C61.3404 24.6565 62.345 24.2389 63.0857 23.4954C63.8264 22.7519 64.2425 21.7436 64.2425 20.6921C64.2386 19.6433 63.8207 18.6387 63.0805 17.8984C62.3402 17.1582 61.3378 16.7424 60.2929 16.7424ZM60.1732 40.4699C59.4781 40.4907 58.8008 40.6952 58.2097 41.063C57.6187 41.4308 57.1348 41.949 56.8071 42.5647L51.7803 51.7502L42.5646 56.8071C41.9427 57.1485 41.4238 57.6515 41.0623 58.2635C40.7009 58.8755 40.5101 59.5737 40.5101 60.2852C40.5101 60.9967 40.7009 61.6953 41.0623 62.3073C41.4238 62.9193 41.9427 63.4224 42.5646 63.7638L51.7803 68.7905L56.8071 78.0062C57.1451 78.6369 57.6469 79.1637 58.2594 79.5311C58.8718 79.8985 59.572 80.0927 60.2854 80.0927C60.9989 80.0927 61.699 79.8985 62.3115 79.5311C62.9239 79.1637 63.4258 78.6369 63.7638 78.0062L68.7906 68.7905L78.0213 63.7638C78.6431 63.4224 79.162 62.9193 79.5235 62.3073C79.885 61.6953 80.0757 60.9967 80.0757 60.2852C80.0757 59.5737 79.885 58.8755 79.5235 58.2635C79.162 57.6515 78.6431 57.1485 78.0213 56.8071L68.7906 51.7502L63.7638 42.5496C63.4161 41.903 62.8962 41.3663 62.2621 40.9991C61.6281 40.6319 60.9049 40.4485 60.1732 40.4699ZM60.2929 52.678L62.4173 56.5674C62.7825 57.2385 63.3332 57.7895 64.0031 58.1535L67.8929 60.2779L64.0031 62.3721C63.3332 62.7362 62.7825 63.2872 62.4173 63.9582L60.2929 67.8482L58.1535 63.9582C57.7901 63.2948 57.245 62.7495 56.5827 62.3872L52.6929 60.293L56.5827 58.1535C57.2471 57.7872 57.7924 57.2364 58.1535 56.5674L60.2929 52.678ZM20.722 56.3131C20.2021 56.3111 19.6869 56.4124 19.206 56.6108C18.7251 56.8091 18.2879 57.1008 17.9196 57.4691C17.5512 57.8375 17.259 58.2751 17.0595 58.7571C16.8601 59.2391 16.7575 59.756 16.7575 60.2779C16.7594 60.7985 16.8635 61.3134 17.0638 61.7937C17.2641 62.2739 17.5567 62.7103 17.9248 63.0771C18.293 63.4438 18.7295 63.7339 19.2094 63.9313C19.6894 64.1287 20.2034 64.2296 20.722 64.2276C21.767 64.2276 22.7693 63.8119 23.5096 63.0716C24.2498 62.3313 24.6677 61.3268 24.6717 60.2779C24.6717 59.2264 24.2555 58.2181 23.5148 57.4746C22.7741 56.7311 21.7695 56.3131 20.722 56.3131Z" fill="white"/>
</svg>
